<svg xmlns="http://www.w3.org/2000/svg" height="100%" width="100%" viewBox="0 0 1440 1917" fill="none">
  <path d="M2515 173.94V1576.29H2514.91C2377.76 1567.64 2233.15 1565.6 2082.64 1572.98C2017.48 1576.19 1956.09 1580.91 1897.84 1586.93C1809.27 1595.97 1727.98 1607.98 1651.57 1622.07H1651.39C1537.47 1643.06 1434.61 1668.63 1335.16 1695.8C1117.64 1755.23 916.717 1822.45 654.592 1866.96C249.237 1935.78 -335.844 1955.95 -1166 1771.51V166.991C-1130.61 167.428 -1094.48 167.671 -1057.52 167.671C-1045.08 167.671 -1032.54 167.622 -1019.91 167.574C-1013.74 167.574 -1007.56 167.525 -1001.3 167.477C-995.121 167.428 -988.853 167.379 -982.494 167.331H-981.48C-971.341 167.234 -961.111 167.136 -950.788 166.991C-920.004 166.65 -888.667 166.067 -856.777 165.338C-848.297 165.144 -839.818 164.949 -831.246 164.706C-814.195 164.318 -796.868 163.783 -779.54 163.248C-695.114 160.575 -607.555 156.59 -517.415 150.953C-61.3683 122.522 243.892 66.5834 404.264 42.9639C554.405 20.851 730.999 4.47282 938.745 0.973633H1110.36C1482.9 7.24301 1944.3 54.0447 2515 173.94Z" fill="white"/>
</svg>