<svg width="454" height="140" viewBox="0 0 454 140" fill="none" xmlns="http://www.w3.org/2000/svg">
<path d="M40.506 48.5353L30.718 32.7715C15.0572 39.4582 4.07831 54.8828 4.07831 72.8433C4.07831 89.5439 13.5727 104.048 27.4879 111.364L40.2776 91.3205C48.2548 78.8193 61.7949 71.0181 76.5258 70.146C61.7949 69.0961 48.3364 61.1335 40.506 48.5192V48.5353Z" fill="#FFE500"/>
<path d="M128.06 44.5772C120.441 44.5772 113.524 47.5652 108.402 52.3945L94.7968 26.0514C88.924 14.6808 78.9402 6.26589 66.6726 2.34109C54.405 -1.58372 41.3217 -0.550026 29.8534 5.2645L23.0344 8.70476C20.7669 9.85152 19.0866 11.8058 18.3036 14.2124C17.5205 16.619 17.7326 19.1709 18.8908 21.416C18.9398 21.5129 18.9887 21.6098 19.054 21.6905L24.9268 31.1391C10.0816 39.2633 0 54.8979 0 72.8422C0 89.5105 8.69501 104.176 21.8109 112.704L18.483 117.905C18.4341 118.002 18.3688 118.082 18.3199 118.179C17.129 120.408 16.8843 122.96 17.651 125.367C18.4014 127.773 20.0654 129.744 22.3166 130.923L29.0867 134.46C36.134 138.143 43.8013 140 51.5338 140C56.3299 140 61.1587 139.289 65.8569 137.836C78.1735 134.056 88.2715 125.771 94.2748 114.481L106.559 91.4003C111.795 97.3278 119.479 101.107 128.043 101.107C143.786 101.107 156.592 88.4284 156.592 72.8422C156.592 57.2561 143.786 44.5772 128.043 44.5772H128.06ZM26.085 16.6997C26.1503 16.5059 26.3297 16.1344 26.7702 15.9083L33.5892 12.4681C43.1325 7.63877 53.9971 6.78274 64.193 10.0453C74.3888 13.3079 82.6923 20.3015 87.5537 29.7501L102.921 59.5173C101.86 61.4877 101.045 63.5874 100.458 65.8002L84.3073 66.1878L81.1752 66.0748C79.6417 66.0102 78.1246 66.0586 76.6074 66.1394C63.2957 65.1057 51.0607 57.8375 43.9808 46.4507L26.1177 17.6688C25.9545 17.265 26.0198 16.9097 26.085 16.732V16.6997ZM8.15667 72.8422C8.15667 57.8052 16.6885 44.7225 29.2009 38.0197L37.0313 50.634C41.028 57.0622 46.3951 62.3922 52.6105 66.3655H22.1535C19.9023 66.3655 18.0752 68.1744 18.0752 70.4034C18.0752 72.6323 19.9023 74.4412 22.1535 74.4412H51.3707C45.6284 78.253 40.6365 83.2115 36.8355 89.1552L26.1666 105.856C15.3345 98.7653 8.14035 86.6194 8.14035 72.8261L8.15667 72.8422ZM87.0806 110.717C82.0887 120.101 73.7037 126.998 63.4589 130.131C53.2304 133.265 42.3657 132.263 32.8877 127.321L26.1177 123.784C25.6772 123.558 25.5141 123.186 25.4488 122.976C25.3836 122.783 25.3183 122.427 25.4977 122.04L43.7361 93.4838C50.4735 82.9207 61.6807 76.0241 73.9973 74.4574H90.0333L99.6255 74.8127C99.8376 77.833 100.523 80.7403 101.616 83.4376L87.0806 110.734V110.717ZM128.06 93.0315C116.82 93.0315 107.668 83.9706 107.668 72.8422C107.668 61.7139 116.82 52.6529 128.06 52.6529C139.3 52.6529 148.451 61.7139 148.451 72.8422C148.451 83.9706 139.3 93.0315 128.06 93.0315Z" fill="#000F92"/>
<path d="M192.008 45.9029H174.863V101.706H192.008C210.442 101.706 222.122 89.6733 222.122 73.7964C222.122 57.9196 210.442 45.8867 192.008 45.8867V45.9029ZM192.008 92.306H186.445V55.3192H192.008C203.688 55.3192 210.524 63.5241 210.524 73.8126C210.524 84.1011 203.672 92.306 192.008 92.306Z" fill="#000F92"/>
<path d="M256.853 64.3134L256.446 64.5557C253.868 62.4883 250.41 61.0508 245.336 61.0508C233.982 61.0508 225.124 70.2248 225.124 81.7731C225.124 93.3214 233.656 102.495 244.537 102.495C249.692 102.495 253.884 100.509 256.38 97.7146L256.87 97.8761V101.704H268.469V61.8422H256.87V64.3134H256.853ZM256.853 87.6684C254.765 91.6578 250.899 93.0953 246.788 93.0953C241.225 93.0953 236.723 88.3145 236.723 81.7731C236.723 75.2318 241.225 70.4509 246.788 70.4509C250.899 70.4509 254.358 71.4846 256.853 73.1644V87.6684Z" fill="#000F92"/>
<path d="M282.759 45.3359C278.403 45.3359 276.315 47.9686 276.315 50.5206C276.315 52.911 278.403 55.6244 282.759 55.6244C287.343 55.6244 289.284 52.911 289.284 50.5206C289.284 47.9686 287.359 45.3359 282.759 45.3359Z" fill="#000F92"/>
<path d="M288.648 61.8438H277.049V101.706H288.648V61.8438Z" fill="#000F92"/>
<path d="M308.11 86.7976V43.5117H296.511V88.0736C296.511 97.5707 301.666 102.432 313.102 102.432L313.901 92.386C310.198 92.1438 308.11 90.4802 308.11 86.7976Z" fill="#000F92"/>
<path d="M334.195 89.1074L333.706 89.0267L333.053 85.5218L324.848 61.8438H312.123L328.061 101.625L326.609 106.083C324.603 110.314 322.025 112.22 316.136 112.22L316.707 121.556C329.432 121.556 334.423 115.903 337.556 107.52L355.517 61.8438H342.711L334.179 89.1074H334.195Z" fill="#000F92"/>
<path d="M392.89 92.8542C390.639 93.0157 388.225 93.0964 385.729 93.0964C375.745 93.0964 368.013 85.0368 368.013 73.7954C368.013 62.554 375.745 54.4944 385.729 54.4944C391.928 54.4944 395.468 55.4474 398.698 56.6426L401.275 47.9531C396.447 45.6434 391.292 45.0781 385.729 45.0781C369.057 45.0781 356.414 57.434 356.414 73.7793C356.414 90.1246 369.057 102.48 385.729 102.48C392.809 102.48 398.535 101.851 404.489 99.4439V75.5236H392.89V92.8218V92.8542Z" fill="#000F92"/>
<path d="M431.7 61.0508C418.812 61.0508 409.399 70.2248 409.399 81.7731C409.399 93.3214 418.828 102.495 431.7 102.495C444.571 102.495 454 93.3214 454 81.7731C454 70.2248 444.506 61.0508 431.7 61.0508ZM431.7 93.0953C425.419 93.0953 420.998 88.3952 420.998 81.7731C420.998 75.151 425.419 70.4509 431.7 70.4509C437.98 70.4509 442.401 75.2318 442.401 81.7731C442.401 88.3145 437.899 93.0953 431.7 93.0953Z" fill="#000F92"/>
</svg>
